<svg width="171" height="75" viewBox="0 0 171 75" fill="none" xmlns="http://www.w3.org/2000/svg">
<path fill-rule="evenodd" clip-rule="evenodd" d="M69.6541 29.6671C69.6574 25.5779 65.588 24.9857 61.7989 25.6128C58.628 26.1374 55.0351 27.321 52.4072 28.5542C44.5864 32.2248 35.7695 37.6753 27.8843 40.8813C25.5038 41.8495 20.2623 44.2602 18.9918 41.0753C17.5525 37.4676 23.4655 29.9044 25.9413 26.9878L27.3059 25.3252C26.2773 25.9412 23.897 28.6783 22.9785 29.8278C19.9315 33.6418 13.8394 42.0868 13.8359 47.108L13.8356 47.5569C13.8336 50.4404 16.0652 51.7591 18.9466 51.7585C23.2743 51.758 27.7197 50.0605 31.2445 48.5399C32.0901 48.175 32.9351 47.7077 33.7651 47.2846C40.3294 43.9382 56.5494 34.4627 61.803 34.4671C63.0114 34.4682 63.8537 34.8901 64.3667 35.7456C66.1883 38.783 61.1396 45.5313 59.4254 47.8311C58.9179 48.5121 58.4166 49.158 57.8567 49.8003C57.6979 49.9827 57.6281 50.0888 57.4538 50.3017C57.0885 50.7478 56.5259 51.2789 56.2485 51.7701C56.6398 51.5759 57.1035 51.0616 57.4532 50.6756C57.8534 50.2341 58.1239 49.9399 58.5358 49.572C59.7433 48.4926 61.4239 46.1388 62.4904 44.7179C65.1601 41.1627 69.6499 34.5412 69.6541 29.6671Z" fill="#005BB9"/>
<path fill-rule="evenodd" clip-rule="evenodd" d="M117.559 27.646H113.913C113.749 27.685 109.899 32.6262 109.289 33.4136C108.765 34.0902 108.291 34.6325 107.789 35.3012C106.358 37.2084 104.685 39.1732 103.24 41.0661L102.113 42.4993C101.822 42.8922 101.688 42.9424 101.692 42.9438L95.5569 27.6463L92.0027 27.6518L87.3417 50.7009L91.4695 50.6985L94.5431 35.3938C94.6595 35.5015 94.5874 35.4042 94.7027 35.5941L99.2901 46.5655C100.08 48.4144 99.4536 48.0625 101.843 48.0622C102.652 47.0518 103.511 45.9864 104.317 44.9726C105.804 43.1023 107.759 40.5724 109.265 38.7776C109.53 38.463 111.541 36.0188 111.676 35.6883C111.828 35.9243 111.696 36.257 111.623 36.6128L111.059 39.4226C110.811 40.6864 110.557 41.8996 110.302 43.171C110.044 44.4529 109.805 45.6523 109.548 46.921C109.299 48.1564 108.99 49.463 108.798 50.702L112.899 50.6768L117.559 27.646Z" fill="#005BB9"/>
<path fill-rule="evenodd" clip-rule="evenodd" d="M155.257 27.6448L150.948 27.6643C150.66 29.2972 147.892 43.4132 147.687 43.7352L138.129 27.6456L134.535 27.6472L129.871 50.7008L134.169 50.6986L137.466 34.6022L146.999 50.7003L150.597 50.6764L155.257 27.6448Z" fill="#005BB9"/>
<path fill-rule="evenodd" clip-rule="evenodd" d="M76.6765 50.6852L81.0175 50.7011L85.6805 27.6648L81.3401 27.6448L76.6765 50.6852Z" fill="#005BB9"/>
<path fill-rule="evenodd" clip-rule="evenodd" d="M128.211 27.6448L123.873 27.6651L119.223 50.7008L123.544 50.6992L128.211 27.6448Z" fill="#005BB9"/>
<path fill-rule="evenodd" clip-rule="evenodd" d="M34.1848 47.9311C34.5307 49.0179 37.5413 48.2662 38.426 47.9923C39.6712 47.6069 41.0007 46.9866 42.1001 46.4517C44.3182 45.3731 46.889 43.694 48.7924 42.8006C50.457 42.0195 56.1512 39.7289 55.6177 43.5558C55.4517 44.7448 54.635 46.3341 54.081 47.197L52.017 50.2434C53.2603 49.3624 56.1282 44.7031 56.8303 42.8028C58.7783 37.5297 53.7196 38.4577 50.547 39.7423C46.44 41.4052 40.2083 45.6179 35.2726 47.4992C35.0681 47.5772 34.9071 47.6421 34.7172 47.7014L34.2303 47.8967C34.2228 47.8822 34.1989 47.9184 34.1848 47.9311Z" fill="#005BB9"/>
<path fill-rule="evenodd" clip-rule="evenodd" d="M27.2585 40.6016C27.6892 40.5156 28.4838 40.1544 28.9314 39.9697L30.1032 39.4794C30.1772 39.4489 30.2334 39.4302 30.3127 39.3843C30.4723 39.2917 30.4153 39.3252 30.4973 39.2486C30.1589 38.6884 29.7936 38.517 29.7936 37.3022C29.7936 33.2181 35.3199 27.0519 35.7174 26.2212C34.7191 26.8352 31.6095 31.137 30.7018 32.5851C29.448 34.5848 27.4605 37.6398 27.2585 40.6016Z" fill="#005BB9"/>
<path fill-rule="evenodd" clip-rule="evenodd" d="M66.4115 46.7368C68.1462 46.4135 69.5364 47.6739 69.8088 49.0797C70.1538 50.8599 68.8488 52.2489 67.4209 52.5041C63.6423 53.1797 62.4411 47.4767 66.4115 46.7368ZM70.4141 50.252C70.8439 48.1184 69.2465 46.4283 67.504 46.1275C65.3825 45.7613 63.6991 47.2396 63.3804 48.9566C62.9863 51.0783 64.5009 52.8063 66.2705 53.1009C68.4372 53.4616 70.0599 52.0107 70.4141 50.252Z" fill="#005BB9"/>
<path fill-rule="evenodd" clip-rule="evenodd" d="M66.3668 49.3728L66.563 48.3637C67.0555 48.3621 68.3199 48.1588 68.0469 48.9192C67.8598 49.4409 67.0103 49.4305 66.3668 49.3728ZM65.0262 51.6247C66.1601 51.6274 65.8097 51.8214 66.1238 50.4011C66.1606 50.2354 66.1872 50.0387 66.3541 49.9997C67.2127 49.7983 67.4338 51.0261 67.7196 51.5939L68.6012 51.6321C68.487 51.1832 68.0909 50.259 67.7792 50.059C67.7944 50.0434 67.821 50.0027 67.8304 50.0184C67.8396 50.0335 67.8689 49.9873 67.8817 49.9796C67.9732 49.9247 67.949 49.9354 68.0436 49.8926C68.3215 49.7656 68.5444 49.7486 68.7564 49.4035C68.9795 49.0404 69.008 48.4456 68.7755 48.0871C68.3847 47.4849 66.7296 47.6783 65.8513 47.6783L65.0262 51.6247Z" fill="#005BB9"/>
</svg>
