<svg width="38" height="72" viewBox="0 0 38 72" fill="none" xmlns="http://www.w3.org/2000/svg">
  <path d="M16.5 69.1152C16.5 70.4959 17.6193 71.6152 19 71.6152C20.3807 71.6152 21.5 70.4959 21.5 69.1152L16.5 69.1152ZM20.7678 1.34747C19.7915 0.371157 18.2085 0.371157 17.2322 1.34747L1.32233 17.2574C0.346019 18.2337 0.346019 19.8166 1.32233 20.7929C2.29864 21.7692 3.88155 21.7692 4.85786 20.7929L19 6.65077L33.1421 20.7929C34.1184 21.7692 35.7014 21.7692 36.6777 20.7929C37.654 19.8166 37.654 18.2337 36.6777 17.2574L20.7678 1.34747ZM21.5 69.1152L21.5 3.11523L16.5 3.11523L16.5 69.1152L21.5 69.1152Z" fill="#005BB9" />
</svg>